<?xml version="1.0" encoding="utf-8" standalone="no"?>
<!DOCTYPE svg PUBLIC "-//W3C//DTD SVG 1.1//EN"
  "http://www.w3.org/Graphics/SVG/1.1/DTD/svg11.dtd">
<svg xmlns:xlink="http://www.w3.org/1999/xlink" width="921.6pt" height="504pt" viewBox="0 0 921.6 504" xmlns="http://www.w3.org/2000/svg" version="1.1">
 <metadata>
  <rdf:RDF xmlns:dc="http://purl.org/dc/elements/1.1/" xmlns:cc="http://creativecommons.org/ns#" xmlns:rdf="http://www.w3.org/1999/02/22-rdf-syntax-ns#">
   <cc:Work>
    <dc:type rdf:resource="http://purl.org/dc/dcmitype/StillImage"/>
    <dc:date>2025-10-08T16:34:12.258282</dc:date>
    <dc:format>image/svg+xml</dc:format>
    <dc:creator>
     <cc:Agent>
      <dc:title>Matplotlib v3.10.6, https://matplotlib.org/</dc:title>
     </cc:Agent>
    </dc:creator>
   </cc:Work>
  </rdf:RDF>
 </metadata>
 <defs>
  <style type="text/css">*{stroke-linejoin: round; stroke-linecap: butt}</style>
 </defs>
 <g id="figure_1">
  <g id="patch_1">
   <path d="M 0 504 
L 921.6 504 
L 921.6 0 
L 0 0 
z
" style="fill: #ffffff"/>
  </g>
  <g id="axes_1">
   <g id="patch_2">
    <path d="M 52.883052 457.301635 
L 918.59976 457.301635 
L 918.59976 3.00024 
L 52.883052 3.00024 
z
" style="fill: #ffffff"/>
   </g>
   <g id="matplotlib.axis_1">
    <g id="xtick_1">
     <g id="line2d_1">
      <path d="M 92.233812 457.301635 
L 92.233812 3.00024 
" clip-path="url(#p704e0f792a)" style="fill: none; stroke-dasharray: 2.96,1.28; stroke-dashoffset: 0; stroke: #b0b0b0; stroke-opacity: 0.5; stroke-width: 0.8"/>
     </g>
     <g id="line2d_2">
      <defs>
       <path id="m55954ba43e" d="M 0 0 
L 0 3.5 
" style="stroke: #000000; stroke-width: 0.8"/>
      </defs>
      <g>
       <use xlink:href="#m55954ba43e" x="92.233812" y="457.301635" style="stroke: #000000; stroke-width: 0.8"/>
      </g>
     </g>
     <g id="text_1">
      <!-- 0 -->
      <g transform="translate(87.733812 476.800385) scale(0.18 -0.18)">
       <defs>
        <path id="TimesNewRomanPSMT-30" d="M 231 2094 
Q 231 2819 450 3342 
Q 669 3866 1031 4122 
Q 1313 4325 1613 4325 
Q 2100 4325 2488 3828 
Q 2972 3213 2972 2159 
Q 2972 1422 2759 906 
Q 2547 391 2217 158 
Q 1888 -75 1581 -75 
Q 975 -75 572 641 
Q 231 1244 231 2094 
z
M 844 2016 
Q 844 1141 1059 588 
Q 1238 122 1591 122 
Q 1759 122 1940 273 
Q 2122 425 2216 781 
Q 2359 1319 2359 2297 
Q 2359 3022 2209 3506 
Q 2097 3866 1919 4016 
Q 1791 4119 1609 4119 
Q 1397 4119 1231 3928 
Q 1006 3669 925 3112 
Q 844 2556 844 2016 
z
" transform="scale(0.015625)"/>
       </defs>
       <use xlink:href="#TimesNewRomanPSMT-30"/>
      </g>
     </g>
    </g>
    <g id="xtick_2">
     <g id="line2d_3">
      <path d="M 206.030109 457.301635 
L 206.030109 3.00024 
" clip-path="url(#p704e0f792a)" style="fill: none; stroke-dasharray: 2.96,1.28; stroke-dashoffset: 0; stroke: #b0b0b0; stroke-opacity: 0.5; stroke-width: 0.8"/>
     </g>
     <g id="line2d_4">
      <g>
       <use xlink:href="#m55954ba43e" x="206.030109" y="457.301635" style="stroke: #000000; stroke-width: 0.8"/>
      </g>
     </g>
     <g id="text_2">
      <!-- 250 -->
      <g transform="translate(192.530109 476.800385) scale(0.18 -0.18)">
       <defs>
        <path id="TimesNewRomanPSMT-32" d="M 2934 816 
L 2638 0 
L 138 0 
L 138 116 
Q 1241 1122 1691 1759 
Q 2141 2397 2141 2925 
Q 2141 3328 1894 3587 
Q 1647 3847 1303 3847 
Q 991 3847 742 3664 
Q 494 3481 375 3128 
L 259 3128 
Q 338 3706 661 4015 
Q 984 4325 1469 4325 
Q 1984 4325 2329 3994 
Q 2675 3663 2675 3213 
Q 2675 2891 2525 2569 
Q 2294 2063 1775 1497 
Q 997 647 803 472 
L 1909 472 
Q 2247 472 2383 497 
Q 2519 522 2628 598 
Q 2738 675 2819 816 
L 2934 816 
z
" transform="scale(0.015625)"/>
        <path id="TimesNewRomanPSMT-35" d="M 2778 4238 
L 2534 3706 
L 1259 3706 
L 981 3138 
Q 1809 3016 2294 2522 
Q 2709 2097 2709 1522 
Q 2709 1188 2573 903 
Q 2438 619 2231 419 
Q 2025 219 1772 97 
Q 1413 -75 1034 -75 
Q 653 -75 479 54 
Q 306 184 306 341 
Q 306 428 378 495 
Q 450 563 559 563 
Q 641 563 702 538 
Q 763 513 909 409 
Q 1144 247 1384 247 
Q 1750 247 2026 523 
Q 2303 800 2303 1197 
Q 2303 1581 2056 1914 
Q 1809 2247 1375 2428 
Q 1034 2569 447 2591 
L 1259 4238 
L 2778 4238 
z
" transform="scale(0.015625)"/>
       </defs>
       <use xlink:href="#TimesNewRomanPSMT-32"/>
       <use xlink:href="#TimesNewRomanPSMT-35" transform="translate(50 0)"/>
       <use xlink:href="#TimesNewRomanPSMT-30" transform="translate(100 0)"/>
      </g>
     </g>
    </g>
    <g id="xtick_3">
     <g id="line2d_5">
      <path d="M 319.826406 457.301635 
L 319.826406 3.00024 
" clip-path="url(#p704e0f792a)" style="fill: none; stroke-dasharray: 2.96,1.28; stroke-dashoffset: 0; stroke: #b0b0b0; stroke-opacity: 0.5; stroke-width: 0.8"/>
     </g>
     <g id="line2d_6">
      <g>
       <use xlink:href="#m55954ba43e" x="319.826406" y="457.301635" style="stroke: #000000; stroke-width: 0.8"/>
      </g>
     </g>
     <g id="text_3">
      <!-- 500 -->
      <g transform="translate(306.326406 476.800385) scale(0.18 -0.18)">
       <use xlink:href="#TimesNewRomanPSMT-35"/>
       <use xlink:href="#TimesNewRomanPSMT-30" transform="translate(50 0)"/>
       <use xlink:href="#TimesNewRomanPSMT-30" transform="translate(100 0)"/>
      </g>
     </g>
    </g>
    <g id="xtick_4">
     <g id="line2d_7">
      <path d="M 433.622702 457.301635 
L 433.622702 3.00024 
" clip-path="url(#p704e0f792a)" style="fill: none; stroke-dasharray: 2.96,1.28; stroke-dashoffset: 0; stroke: #b0b0b0; stroke-opacity: 0.5; stroke-width: 0.8"/>
     </g>
     <g id="line2d_8">
      <g>
       <use xlink:href="#m55954ba43e" x="433.622702" y="457.301635" style="stroke: #000000; stroke-width: 0.8"/>
      </g>
     </g>
     <g id="text_4">
      <!-- 750 -->
      <g transform="translate(420.122702 476.800385) scale(0.18 -0.18)">
       <defs>
        <path id="TimesNewRomanPSMT-37" d="M 644 4238 
L 2916 4238 
L 2916 4119 
L 1503 -88 
L 1153 -88 
L 2419 3728 
L 1253 3728 
Q 900 3728 750 3644 
Q 488 3500 328 3200 
L 238 3234 
L 644 4238 
z
" transform="scale(0.015625)"/>
       </defs>
       <use xlink:href="#TimesNewRomanPSMT-37"/>
       <use xlink:href="#TimesNewRomanPSMT-35" transform="translate(50 0)"/>
       <use xlink:href="#TimesNewRomanPSMT-30" transform="translate(100 0)"/>
      </g>
     </g>
    </g>
    <g id="xtick_5">
     <g id="line2d_9">
      <path d="M 547.418999 457.301635 
L 547.418999 3.00024 
" clip-path="url(#p704e0f792a)" style="fill: none; stroke-dasharray: 2.96,1.28; stroke-dashoffset: 0; stroke: #b0b0b0; stroke-opacity: 0.5; stroke-width: 0.8"/>
     </g>
     <g id="line2d_10">
      <g>
       <use xlink:href="#m55954ba43e" x="547.418999" y="457.301635" style="stroke: #000000; stroke-width: 0.8"/>
      </g>
     </g>
     <g id="text_5">
      <!-- 1000 -->
      <g transform="translate(529.418999 476.800385) scale(0.18 -0.18)">
       <defs>
        <path id="TimesNewRomanPSMT-31" d="M 750 3822 
L 1781 4325 
L 1884 4325 
L 1884 747 
Q 1884 391 1914 303 
Q 1944 216 2037 169 
Q 2131 122 2419 116 
L 2419 0 
L 825 0 
L 825 116 
Q 1125 122 1212 167 
Q 1300 213 1334 289 
Q 1369 366 1369 747 
L 1369 3034 
Q 1369 3497 1338 3628 
Q 1316 3728 1258 3775 
Q 1200 3822 1119 3822 
Q 1003 3822 797 3725 
L 750 3822 
z
" transform="scale(0.015625)"/>
       </defs>
       <use xlink:href="#TimesNewRomanPSMT-31"/>
       <use xlink:href="#TimesNewRomanPSMT-30" transform="translate(50 0)"/>
       <use xlink:href="#TimesNewRomanPSMT-30" transform="translate(100 0)"/>
       <use xlink:href="#TimesNewRomanPSMT-30" transform="translate(150 0)"/>
      </g>
     </g>
    </g>
    <g id="xtick_6">
     <g id="line2d_11">
      <path d="M 661.215296 457.301635 
L 661.215296 3.00024 
" clip-path="url(#p704e0f792a)" style="fill: none; stroke-dasharray: 2.96,1.28; stroke-dashoffset: 0; stroke: #b0b0b0; stroke-opacity: 0.5; stroke-width: 0.8"/>
     </g>
     <g id="line2d_12">
      <g>
       <use xlink:href="#m55954ba43e" x="661.215296" y="457.301635" style="stroke: #000000; stroke-width: 0.8"/>
      </g>
     </g>
     <g id="text_6">
      <!-- 1250 -->
      <g transform="translate(643.215296 476.800385) scale(0.18 -0.18)">
       <use xlink:href="#TimesNewRomanPSMT-31"/>
       <use xlink:href="#TimesNewRomanPSMT-32" transform="translate(50 0)"/>
       <use xlink:href="#TimesNewRomanPSMT-35" transform="translate(100 0)"/>
       <use xlink:href="#TimesNewRomanPSMT-30" transform="translate(150 0)"/>
      </g>
     </g>
    </g>
    <g id="xtick_7">
     <g id="line2d_13">
      <path d="M 775.011593 457.301635 
L 775.011593 3.00024 
" clip-path="url(#p704e0f792a)" style="fill: none; stroke-dasharray: 2.96,1.28; stroke-dashoffset: 0; stroke: #b0b0b0; stroke-opacity: 0.5; stroke-width: 0.8"/>
     </g>
     <g id="line2d_14">
      <g>
       <use xlink:href="#m55954ba43e" x="775.011593" y="457.301635" style="stroke: #000000; stroke-width: 0.8"/>
      </g>
     </g>
     <g id="text_7">
      <!-- 1500 -->
      <g transform="translate(757.011593 476.800385) scale(0.18 -0.18)">
       <use xlink:href="#TimesNewRomanPSMT-31"/>
       <use xlink:href="#TimesNewRomanPSMT-35" transform="translate(50 0)"/>
       <use xlink:href="#TimesNewRomanPSMT-30" transform="translate(100 0)"/>
       <use xlink:href="#TimesNewRomanPSMT-30" transform="translate(150 0)"/>
      </g>
     </g>
    </g>
    <g id="xtick_8">
     <g id="line2d_15">
      <path d="M 888.807889 457.301635 
L 888.807889 3.00024 
" clip-path="url(#p704e0f792a)" style="fill: none; stroke-dasharray: 2.96,1.28; stroke-dashoffset: 0; stroke: #b0b0b0; stroke-opacity: 0.5; stroke-width: 0.8"/>
     </g>
     <g id="line2d_16">
      <g>
       <use xlink:href="#m55954ba43e" x="888.807889" y="457.301635" style="stroke: #000000; stroke-width: 0.8"/>
      </g>
     </g>
     <g id="text_8">
      <!-- 1750 -->
      <g transform="translate(870.807889 476.800385) scale(0.18 -0.18)">
       <use xlink:href="#TimesNewRomanPSMT-31"/>
       <use xlink:href="#TimesNewRomanPSMT-37" transform="translate(50 0)"/>
       <use xlink:href="#TimesNewRomanPSMT-35" transform="translate(100 0)"/>
       <use xlink:href="#TimesNewRomanPSMT-30" transform="translate(150 0)"/>
      </g>
     </g>
    </g>
    <g id="text_9">
     <!-- Iterations -->
     <g transform="translate(451.75375 497.149448) scale(0.18 -0.18)">
      <defs>
       <path id="TimesNewRomanPSMT-49" d="M 1975 116 
L 1975 0 
L 159 0 
L 159 116 
L 309 116 
Q 572 116 691 269 
Q 766 369 766 750 
L 766 3488 
Q 766 3809 725 3913 
Q 694 3991 597 4047 
Q 459 4122 309 4122 
L 159 4122 
L 159 4238 
L 1975 4238 
L 1975 4122 
L 1822 4122 
Q 1563 4122 1444 3969 
Q 1366 3869 1366 3488 
L 1366 750 
Q 1366 428 1406 325 
Q 1438 247 1538 191 
Q 1672 116 1822 116 
L 1975 116 
z
" transform="scale(0.015625)"/>
       <path id="TimesNewRomanPSMT-74" d="M 1031 3803 
L 1031 2863 
L 1700 2863 
L 1700 2644 
L 1031 2644 
L 1031 788 
Q 1031 509 1111 412 
Q 1191 316 1316 316 
Q 1419 316 1516 380 
Q 1613 444 1666 569 
L 1788 569 
Q 1678 263 1478 108 
Q 1278 -47 1066 -47 
Q 922 -47 784 33 
Q 647 113 581 261 
Q 516 409 516 719 
L 516 2644 
L 63 2644 
L 63 2747 
Q 234 2816 414 2980 
Q 594 3144 734 3369 
Q 806 3488 934 3803 
L 1031 3803 
z
" transform="scale(0.015625)"/>
       <path id="TimesNewRomanPSMT-65" d="M 681 1784 
Q 678 1147 991 784 
Q 1303 422 1725 422 
Q 2006 422 2214 576 
Q 2422 731 2563 1106 
L 2659 1044 
Q 2594 616 2278 264 
Q 1963 -88 1488 -88 
Q 972 -88 605 314 
Q 238 716 238 1394 
Q 238 2128 614 2539 
Q 991 2950 1559 2950 
Q 2041 2950 2350 2633 
Q 2659 2316 2659 1784 
L 681 1784 
z
M 681 1966 
L 2006 1966 
Q 1991 2241 1941 2353 
Q 1863 2528 1708 2628 
Q 1553 2728 1384 2728 
Q 1125 2728 920 2526 
Q 716 2325 681 1966 
z
" transform="scale(0.015625)"/>
       <path id="TimesNewRomanPSMT-72" d="M 1038 2947 
L 1038 2303 
Q 1397 2947 1775 2947 
Q 1947 2947 2059 2842 
Q 2172 2738 2172 2600 
Q 2172 2478 2090 2393 
Q 2009 2309 1897 2309 
Q 1788 2309 1652 2417 
Q 1516 2525 1450 2525 
Q 1394 2525 1328 2463 
Q 1188 2334 1038 2041 
L 1038 669 
Q 1038 431 1097 309 
Q 1138 225 1241 169 
Q 1344 113 1538 113 
L 1538 0 
L 72 0 
L 72 113 
Q 291 113 397 181 
Q 475 231 506 341 
Q 522 394 522 644 
L 522 1753 
Q 522 2253 501 2348 
Q 481 2444 426 2487 
Q 372 2531 291 2531 
Q 194 2531 72 2484 
L 41 2597 
L 906 2947 
L 1038 2947 
z
" transform="scale(0.015625)"/>
       <path id="TimesNewRomanPSMT-61" d="M 1822 413 
Q 1381 72 1269 19 
Q 1100 -59 909 -59 
Q 613 -59 420 144 
Q 228 347 228 678 
Q 228 888 322 1041 
Q 450 1253 767 1440 
Q 1084 1628 1822 1897 
L 1822 2009 
Q 1822 2438 1686 2597 
Q 1550 2756 1291 2756 
Q 1094 2756 978 2650 
Q 859 2544 859 2406 
L 866 2225 
Q 866 2081 792 2003 
Q 719 1925 600 1925 
Q 484 1925 411 2006 
Q 338 2088 338 2228 
Q 338 2497 613 2722 
Q 888 2947 1384 2947 
Q 1766 2947 2009 2819 
Q 2194 2722 2281 2516 
Q 2338 2381 2338 1966 
L 2338 994 
Q 2338 584 2353 492 
Q 2369 400 2405 369 
Q 2441 338 2488 338 
Q 2538 338 2575 359 
Q 2641 400 2828 588 
L 2828 413 
Q 2478 -56 2159 -56 
Q 2006 -56 1915 50 
Q 1825 156 1822 413 
z
M 1822 616 
L 1822 1706 
Q 1350 1519 1213 1441 
Q 966 1303 859 1153 
Q 753 1003 753 825 
Q 753 600 887 451 
Q 1022 303 1197 303 
Q 1434 303 1822 616 
z
" transform="scale(0.015625)"/>
       <path id="TimesNewRomanPSMT-69" d="M 928 4444 
Q 1059 4444 1151 4351 
Q 1244 4259 1244 4128 
Q 1244 3997 1151 3903 
Q 1059 3809 928 3809 
Q 797 3809 703 3903 
Q 609 3997 609 4128 
Q 609 4259 701 4351 
Q 794 4444 928 4444 
z
M 1188 2947 
L 1188 647 
Q 1188 378 1227 289 
Q 1266 200 1342 156 
Q 1419 113 1622 113 
L 1622 0 
L 231 0 
L 231 113 
Q 441 113 512 153 
Q 584 194 626 287 
Q 669 381 669 647 
L 669 1750 
Q 669 2216 641 2353 
Q 619 2453 572 2492 
Q 525 2531 444 2531 
Q 356 2531 231 2484 
L 188 2597 
L 1050 2947 
L 1188 2947 
z
" transform="scale(0.015625)"/>
       <path id="TimesNewRomanPSMT-6f" d="M 1600 2947 
Q 2250 2947 2644 2453 
Q 2978 2031 2978 1484 
Q 2978 1100 2793 706 
Q 2609 313 2286 112 
Q 1963 -88 1566 -88 
Q 919 -88 538 428 
Q 216 863 216 1403 
Q 216 1797 411 2186 
Q 606 2575 925 2761 
Q 1244 2947 1600 2947 
z
M 1503 2744 
Q 1338 2744 1170 2645 
Q 1003 2547 900 2300 
Q 797 2053 797 1666 
Q 797 1041 1045 587 
Q 1294 134 1700 134 
Q 2003 134 2200 384 
Q 2397 634 2397 1244 
Q 2397 2006 2069 2444 
Q 1847 2744 1503 2744 
z
" transform="scale(0.015625)"/>
       <path id="TimesNewRomanPSMT-6e" d="M 1034 2341 
Q 1538 2947 1994 2947 
Q 2228 2947 2397 2830 
Q 2566 2713 2666 2444 
Q 2734 2256 2734 1869 
L 2734 647 
Q 2734 375 2778 278 
Q 2813 200 2889 156 
Q 2966 113 3172 113 
L 3172 0 
L 1756 0 
L 1756 113 
L 1816 113 
Q 2016 113 2095 173 
Q 2175 234 2206 353 
Q 2219 400 2219 647 
L 2219 1819 
Q 2219 2209 2117 2386 
Q 2016 2563 1775 2563 
Q 1403 2563 1034 2156 
L 1034 647 
Q 1034 356 1069 288 
Q 1113 197 1189 155 
Q 1266 113 1500 113 
L 1500 0 
L 84 0 
L 84 113 
L 147 113 
Q 366 113 442 223 
Q 519 334 519 647 
L 519 1709 
Q 519 2225 495 2337 
Q 472 2450 423 2490 
Q 375 2531 294 2531 
Q 206 2531 84 2484 
L 38 2597 
L 900 2947 
L 1034 2947 
L 1034 2341 
z
" transform="scale(0.015625)"/>
       <path id="TimesNewRomanPSMT-73" d="M 2050 2947 
L 2050 1972 
L 1947 1972 
Q 1828 2431 1642 2597 
Q 1456 2763 1169 2763 
Q 950 2763 815 2647 
Q 681 2531 681 2391 
Q 681 2216 781 2091 
Q 878 1963 1175 1819 
L 1631 1597 
Q 2266 1288 2266 781 
Q 2266 391 1970 151 
Q 1675 -88 1309 -88 
Q 1047 -88 709 6 
Q 606 38 541 38 
Q 469 38 428 -44 
L 325 -44 
L 325 978 
L 428 978 
Q 516 541 762 319 
Q 1009 97 1316 97 
Q 1531 97 1667 223 
Q 1803 350 1803 528 
Q 1803 744 1651 891 
Q 1500 1038 1047 1263 
Q 594 1488 453 1669 
Q 313 1847 313 2119 
Q 313 2472 555 2709 
Q 797 2947 1181 2947 
Q 1350 2947 1591 2875 
Q 1750 2828 1803 2828 
Q 1853 2828 1881 2850 
Q 1909 2872 1947 2947 
L 2050 2947 
z
" transform="scale(0.015625)"/>
      </defs>
      <use xlink:href="#TimesNewRomanPSMT-49"/>
      <use xlink:href="#TimesNewRomanPSMT-74" transform="translate(33.300781 0)"/>
      <use xlink:href="#TimesNewRomanPSMT-65" transform="translate(61.083984 0)"/>
      <use xlink:href="#TimesNewRomanPSMT-72" transform="translate(105.46875 0)"/>
      <use xlink:href="#TimesNewRomanPSMT-61" transform="translate(138.769531 0)"/>
      <use xlink:href="#TimesNewRomanPSMT-74" transform="translate(183.154297 0)"/>
      <use xlink:href="#TimesNewRomanPSMT-69" transform="translate(210.9375 0)"/>
      <use xlink:href="#TimesNewRomanPSMT-6f" transform="translate(238.720703 0)"/>
      <use xlink:href="#TimesNewRomanPSMT-6e" transform="translate(288.720703 0)"/>
      <use xlink:href="#TimesNewRomanPSMT-73" transform="translate(338.720703 0)"/>
     </g>
    </g>
   </g>
   <g id="matplotlib.axis_2">
    <g id="ytick_1">
     <g id="line2d_17">
      <path d="M 52.883052 456.662335 
L 918.59976 456.662335 
" clip-path="url(#p704e0f792a)" style="fill: none; stroke-dasharray: 2.96,1.28; stroke-dashoffset: 0; stroke: #b0b0b0; stroke-opacity: 0.5; stroke-width: 0.8"/>
     </g>
     <g id="line2d_18">
      <defs>
       <path id="m809be62b21" d="M 0 0 
L -3.5 0 
" style="stroke: #000000; stroke-width: 0.8"/>
      </defs>
      <g>
       <use xlink:href="#m809be62b21" x="52.883052" y="456.662335" style="stroke: #000000; stroke-width: 0.8"/>
      </g>
     </g>
     <g id="text_10">
      <!-- 0.0 -->
      <g transform="translate(23.383052 462.91171) scale(0.18 -0.18)">
       <defs>
        <path id="TimesNewRomanPSMT-2e" d="M 800 606 
Q 947 606 1047 504 
Q 1147 403 1147 259 
Q 1147 116 1045 14 
Q 944 -88 800 -88 
Q 656 -88 554 14 
Q 453 116 453 259 
Q 453 406 554 506 
Q 656 606 800 606 
z
" transform="scale(0.015625)"/>
       </defs>
       <use xlink:href="#TimesNewRomanPSMT-30"/>
       <use xlink:href="#TimesNewRomanPSMT-2e" transform="translate(50 0)"/>
       <use xlink:href="#TimesNewRomanPSMT-30" transform="translate(75 0)"/>
      </g>
     </g>
    </g>
    <g id="ytick_2">
     <g id="line2d_19">
      <path d="M 52.883052 373.773245 
L 918.59976 373.773245 
" clip-path="url(#p704e0f792a)" style="fill: none; stroke-dasharray: 2.96,1.28; stroke-dashoffset: 0; stroke: #b0b0b0; stroke-opacity: 0.5; stroke-width: 0.8"/>
     </g>
     <g id="line2d_20">
      <g>
       <use xlink:href="#m809be62b21" x="52.883052" y="373.773245" style="stroke: #000000; stroke-width: 0.8"/>
      </g>
     </g>
     <g id="text_11">
      <!-- 0.2 -->
      <g transform="translate(23.383052 380.02262) scale(0.18 -0.18)">
       <use xlink:href="#TimesNewRomanPSMT-30"/>
       <use xlink:href="#TimesNewRomanPSMT-2e" transform="translate(50 0)"/>
       <use xlink:href="#TimesNewRomanPSMT-32" transform="translate(75 0)"/>
      </g>
     </g>
    </g>
    <g id="ytick_3">
     <g id="line2d_21">
      <path d="M 52.883052 290.884155 
L 918.59976 290.884155 
" clip-path="url(#p704e0f792a)" style="fill: none; stroke-dasharray: 2.96,1.28; stroke-dashoffset: 0; stroke: #b0b0b0; stroke-opacity: 0.5; stroke-width: 0.8"/>
     </g>
     <g id="line2d_22">
      <g>
       <use xlink:href="#m809be62b21" x="52.883052" y="290.884155" style="stroke: #000000; stroke-width: 0.8"/>
      </g>
     </g>
     <g id="text_12">
      <!-- 0.4 -->
      <g transform="translate(23.383052 297.13353) scale(0.18 -0.18)">
       <defs>
        <path id="TimesNewRomanPSMT-34" d="M 2978 1563 
L 2978 1119 
L 2409 1119 
L 2409 0 
L 1894 0 
L 1894 1119 
L 100 1119 
L 100 1519 
L 2066 4325 
L 2409 4325 
L 2409 1563 
L 2978 1563 
z
M 1894 1563 
L 1894 3666 
L 406 1563 
L 1894 1563 
z
" transform="scale(0.015625)"/>
       </defs>
       <use xlink:href="#TimesNewRomanPSMT-30"/>
       <use xlink:href="#TimesNewRomanPSMT-2e" transform="translate(50 0)"/>
       <use xlink:href="#TimesNewRomanPSMT-34" transform="translate(75 0)"/>
      </g>
     </g>
    </g>
    <g id="ytick_4">
     <g id="line2d_23">
      <path d="M 52.883052 207.995065 
L 918.59976 207.995065 
" clip-path="url(#p704e0f792a)" style="fill: none; stroke-dasharray: 2.96,1.28; stroke-dashoffset: 0; stroke: #b0b0b0; stroke-opacity: 0.5; stroke-width: 0.8"/>
     </g>
     <g id="line2d_24">
      <g>
       <use xlink:href="#m809be62b21" x="52.883052" y="207.995065" style="stroke: #000000; stroke-width: 0.8"/>
      </g>
     </g>
     <g id="text_13">
      <!-- 0.6 -->
      <g transform="translate(23.383052 214.24444) scale(0.18 -0.18)">
       <defs>
        <path id="TimesNewRomanPSMT-36" d="M 2869 4325 
L 2869 4209 
Q 2456 4169 2195 4045 
Q 1934 3922 1679 3669 
Q 1425 3416 1258 3105 
Q 1091 2794 978 2366 
Q 1428 2675 1881 2675 
Q 2316 2675 2634 2325 
Q 2953 1975 2953 1425 
Q 2953 894 2631 456 
Q 2244 -75 1606 -75 
Q 1172 -75 869 213 
Q 275 772 275 1663 
Q 275 2231 503 2743 
Q 731 3256 1154 3653 
Q 1578 4050 1965 4187 
Q 2353 4325 2688 4325 
L 2869 4325 
z
M 925 2138 
Q 869 1716 869 1456 
Q 869 1156 980 804 
Q 1091 453 1309 247 
Q 1469 100 1697 100 
Q 1969 100 2183 356 
Q 2397 613 2397 1088 
Q 2397 1622 2184 2012 
Q 1972 2403 1581 2403 
Q 1463 2403 1327 2353 
Q 1191 2303 925 2138 
z
" transform="scale(0.015625)"/>
       </defs>
       <use xlink:href="#TimesNewRomanPSMT-30"/>
       <use xlink:href="#TimesNewRomanPSMT-2e" transform="translate(50 0)"/>
       <use xlink:href="#TimesNewRomanPSMT-36" transform="translate(75 0)"/>
      </g>
     </g>
    </g>
    <g id="ytick_5">
     <g id="line2d_25">
      <path d="M 52.883052 125.105975 
L 918.59976 125.105975 
" clip-path="url(#p704e0f792a)" style="fill: none; stroke-dasharray: 2.96,1.28; stroke-dashoffset: 0; stroke: #b0b0b0; stroke-opacity: 0.5; stroke-width: 0.8"/>
     </g>
     <g id="line2d_26">
      <g>
       <use xlink:href="#m809be62b21" x="52.883052" y="125.105975" style="stroke: #000000; stroke-width: 0.8"/>
      </g>
     </g>
     <g id="text_14">
      <!-- 0.8 -->
      <g transform="translate(23.383052 131.35535) scale(0.18 -0.18)">
       <defs>
        <path id="TimesNewRomanPSMT-38" d="M 1228 2134 
Q 725 2547 579 2797 
Q 434 3047 434 3316 
Q 434 3728 753 4026 
Q 1072 4325 1600 4325 
Q 2113 4325 2425 4047 
Q 2738 3769 2738 3413 
Q 2738 3175 2569 2928 
Q 2400 2681 1866 2347 
Q 2416 1922 2594 1678 
Q 2831 1359 2831 1006 
Q 2831 559 2490 242 
Q 2150 -75 1597 -75 
Q 994 -75 656 303 
Q 388 606 388 966 
Q 388 1247 577 1523 
Q 766 1800 1228 2134 
z
M 1719 2469 
Q 2094 2806 2194 3001 
Q 2294 3197 2294 3444 
Q 2294 3772 2109 3958 
Q 1925 4144 1606 4144 
Q 1288 4144 1088 3959 
Q 888 3775 888 3528 
Q 888 3366 970 3203 
Q 1053 3041 1206 2894 
L 1719 2469 
z
M 1375 2016 
Q 1116 1797 991 1539 
Q 866 1281 866 981 
Q 866 578 1086 336 
Q 1306 94 1647 94 
Q 1984 94 2187 284 
Q 2391 475 2391 747 
Q 2391 972 2272 1150 
Q 2050 1481 1375 2016 
z
" transform="scale(0.015625)"/>
       </defs>
       <use xlink:href="#TimesNewRomanPSMT-30"/>
       <use xlink:href="#TimesNewRomanPSMT-2e" transform="translate(50 0)"/>
       <use xlink:href="#TimesNewRomanPSMT-38" transform="translate(75 0)"/>
      </g>
     </g>
    </g>
    <g id="ytick_6">
     <g id="line2d_27">
      <path d="M 52.883052 42.216885 
L 918.59976 42.216885 
" clip-path="url(#p704e0f792a)" style="fill: none; stroke-dasharray: 2.96,1.28; stroke-dashoffset: 0; stroke: #b0b0b0; stroke-opacity: 0.5; stroke-width: 0.8"/>
     </g>
     <g id="line2d_28">
      <g>
       <use xlink:href="#m809be62b21" x="52.883052" y="42.216885" style="stroke: #000000; stroke-width: 0.8"/>
      </g>
     </g>
     <g id="text_15">
      <!-- 1.0 -->
      <g transform="translate(23.383052 48.46626) scale(0.18 -0.18)">
       <use xlink:href="#TimesNewRomanPSMT-31"/>
       <use xlink:href="#TimesNewRomanPSMT-2e" transform="translate(50 0)"/>
       <use xlink:href="#TimesNewRomanPSMT-30" transform="translate(75 0)"/>
      </g>
     </g>
    </g>
    <g id="text_16">
     <!-- Loss of training data -->
     <g transform="translate(15.49899 304.384063) rotate(-90) scale(0.18 -0.18)">
      <defs>
       <path id="TimesNewRomanPSMT-4c" d="M 3669 1172 
L 3772 1150 
L 3409 0 
L 128 0 
L 128 116 
L 288 116 
Q 556 116 672 291 
Q 738 391 738 753 
L 738 3488 
Q 738 3884 650 3984 
Q 528 4122 288 4122 
L 128 4122 
L 128 4238 
L 2047 4238 
L 2047 4122 
Q 1709 4125 1573 4059 
Q 1438 3994 1388 3894 
Q 1338 3794 1338 3416 
L 1338 753 
Q 1338 494 1388 397 
Q 1425 331 1503 300 
Q 1581 269 1991 269 
L 2300 269 
Q 2788 269 2984 341 
Q 3181 413 3343 595 
Q 3506 778 3669 1172 
z
" transform="scale(0.015625)"/>
       <path id="TimesNewRomanPSMT-20" transform="scale(0.015625)"/>
       <path id="TimesNewRomanPSMT-66" d="M 1319 2638 
L 1319 756 
Q 1319 356 1406 250 
Q 1522 113 1716 113 
L 1975 113 
L 1975 0 
L 266 0 
L 266 113 
L 394 113 
Q 519 113 622 175 
Q 725 238 764 344 
Q 803 450 803 756 
L 803 2638 
L 247 2638 
L 247 2863 
L 803 2863 
L 803 3050 
Q 803 3478 940 3775 
Q 1078 4072 1361 4255 
Q 1644 4438 1997 4438 
Q 2325 4438 2600 4225 
Q 2781 4084 2781 3909 
Q 2781 3816 2700 3733 
Q 2619 3650 2525 3650 
Q 2453 3650 2373 3701 
Q 2294 3753 2178 3923 
Q 2063 4094 1966 4153 
Q 1869 4213 1750 4213 
Q 1606 4213 1506 4136 
Q 1406 4059 1362 3898 
Q 1319 3738 1319 3069 
L 1319 2863 
L 2056 2863 
L 2056 2638 
L 1319 2638 
z
" transform="scale(0.015625)"/>
       <path id="TimesNewRomanPSMT-67" d="M 966 1044 
Q 703 1172 562 1401 
Q 422 1631 422 1909 
Q 422 2334 742 2640 
Q 1063 2947 1563 2947 
Q 1972 2947 2272 2747 
L 2878 2747 
Q 3013 2747 3034 2739 
Q 3056 2731 3066 2713 
Q 3084 2684 3084 2613 
Q 3084 2531 3069 2500 
Q 3059 2484 3036 2475 
Q 3013 2466 2878 2466 
L 2506 2466 
Q 2681 2241 2681 1891 
Q 2681 1491 2375 1206 
Q 2069 922 1553 922 
Q 1341 922 1119 984 
Q 981 866 932 777 
Q 884 688 884 625 
Q 884 572 936 522 
Q 988 472 1138 450 
Q 1225 438 1575 428 
Q 2219 413 2409 384 
Q 2700 344 2873 169 
Q 3047 -6 3047 -263 
Q 3047 -616 2716 -925 
Q 2228 -1381 1444 -1381 
Q 841 -1381 425 -1109 
Q 191 -953 191 -784 
Q 191 -709 225 -634 
Q 278 -519 444 -313 
Q 466 -284 763 25 
Q 600 122 533 198 
Q 466 275 466 372 
Q 466 481 555 628 
Q 644 775 966 1044 
z
M 1509 2797 
Q 1278 2797 1122 2612 
Q 966 2428 966 2047 
Q 966 1553 1178 1281 
Q 1341 1075 1591 1075 
Q 1828 1075 1981 1253 
Q 2134 1431 2134 1813 
Q 2134 2309 1919 2591 
Q 1759 2797 1509 2797 
z
M 934 0 
Q 788 -159 713 -296 
Q 638 -434 638 -550 
Q 638 -700 819 -813 
Q 1131 -1006 1722 -1006 
Q 2284 -1006 2551 -807 
Q 2819 -609 2819 -384 
Q 2819 -222 2659 -153 
Q 2497 -84 2016 -72 
Q 1313 -53 934 0 
z
" transform="scale(0.015625)"/>
       <path id="TimesNewRomanPSMT-64" d="M 2222 322 
Q 2013 103 1813 7 
Q 1613 -88 1381 -88 
Q 913 -88 563 304 
Q 213 697 213 1313 
Q 213 1928 600 2439 
Q 988 2950 1597 2950 
Q 1975 2950 2222 2709 
L 2222 3238 
Q 2222 3728 2198 3840 
Q 2175 3953 2125 3993 
Q 2075 4034 2000 4034 
Q 1919 4034 1784 3984 
L 1744 4094 
L 2597 4444 
L 2738 4444 
L 2738 1134 
Q 2738 631 2761 520 
Q 2784 409 2836 365 
Q 2888 322 2956 322 
Q 3041 322 3181 375 
L 3216 266 
L 2366 -88 
L 2222 -88 
L 2222 322 
z
M 2222 541 
L 2222 2016 
Q 2203 2228 2109 2403 
Q 2016 2578 1861 2667 
Q 1706 2756 1559 2756 
Q 1284 2756 1069 2509 
Q 784 2184 784 1559 
Q 784 928 1059 592 
Q 1334 256 1672 256 
Q 1956 256 2222 541 
z
" transform="scale(0.015625)"/>
      </defs>
      <use xlink:href="#TimesNewRomanPSMT-4c"/>
      <use xlink:href="#TimesNewRomanPSMT-6f" transform="translate(61.083984 0)"/>
      <use xlink:href="#TimesNewRomanPSMT-73" transform="translate(111.083984 0)"/>
      <use xlink:href="#TimesNewRomanPSMT-73" transform="translate(150 0)"/>
      <use xlink:href="#TimesNewRomanPSMT-20" transform="translate(188.916016 0)"/>
      <use xlink:href="#TimesNewRomanPSMT-6f" transform="translate(213.916016 0)"/>
      <use xlink:href="#TimesNewRomanPSMT-66" transform="translate(263.916016 0)"/>
      <use xlink:href="#TimesNewRomanPSMT-20" transform="translate(297.216797 0)"/>
      <use xlink:href="#TimesNewRomanPSMT-74" transform="translate(322.216797 0)"/>
      <use xlink:href="#TimesNewRomanPSMT-72" transform="translate(350 0)"/>
      <use xlink:href="#TimesNewRomanPSMT-61" transform="translate(383.300781 0)"/>
      <use xlink:href="#TimesNewRomanPSMT-69" transform="translate(427.685547 0)"/>
      <use xlink:href="#TimesNewRomanPSMT-6e" transform="translate(455.46875 0)"/>
      <use xlink:href="#TimesNewRomanPSMT-69" transform="translate(505.46875 0)"/>
      <use xlink:href="#TimesNewRomanPSMT-6e" transform="translate(533.251953 0)"/>
      <use xlink:href="#TimesNewRomanPSMT-67" transform="translate(583.251953 0)"/>
      <use xlink:href="#TimesNewRomanPSMT-20" transform="translate(633.251953 0)"/>
      <use xlink:href="#TimesNewRomanPSMT-64" transform="translate(658.251953 0)"/>
      <use xlink:href="#TimesNewRomanPSMT-61" transform="translate(708.251953 0)"/>
      <use xlink:href="#TimesNewRomanPSMT-74" transform="translate(752.636719 0)"/>
      <use xlink:href="#TimesNewRomanPSMT-61" transform="translate(780.419922 0)"/>
     </g>
    </g>
   </g>
   <g id="line2d_29">
    <path d="M 92.233812 23.650303 
L 94.509738 174.52481 
L 94.964923 199.685552 
L 95.420108 214.591957 
L 95.875293 240.455274 
L 96.330479 257.021737 
L 96.785664 256.832291 
L 97.240849 267.560403 
L 97.696034 285.375251 
L 98.151219 296.755569 
L 98.606405 295.288107 
L 99.06159 298.289642 
L 99.516775 309.83264 
L 99.97196 314.926052 
L 100.427145 308.763957 
L 100.88233 320.525119 
L 101.337516 322.516541 
L 101.792701 308.376591 
L 102.703071 323.646833 
L 103.158256 322.853439 
L 103.613442 326.863555 
L 104.068627 328.719062 
L 104.523812 316.895624 
L 104.978997 328.074589 
L 105.434182 331.601356 
L 105.889368 330.047965 
L 106.344553 330.46884 
L 106.799738 324.692345 
L 107.254923 335.566884 
L 107.710108 330.152199 
L 108.165293 322.773661 
L 108.620479 335.066885 
L 109.075664 321.161662 
L 109.530849 329.868956 
L 109.986034 333.808471 
L 110.441219 332.084791 
L 110.896405 334.732668 
L 111.35159 320.853234 
L 111.806775 333.299913 
L 112.26196 338.70678 
L 112.717145 323.590276 
L 113.172331 341.328965 
L 113.627516 351.506055 
L 114.082701 350.703631 
L 114.537886 330.095494 
L 114.993071 332.565596 
L 115.448256 338.75973 
L 115.903442 321.728247 
L 116.358627 342.684906 
L 116.813812 349.019525 
L 117.268997 319.729525 
L 117.724182 334.286633 
L 118.179368 337.944609 
L 118.634553 330.868768 
L 119.089738 338.161068 
L 119.544923 334.632522 
L 120.000108 349.831669 
L 120.455294 330.535501 
L 120.910479 326.768696 
L 121.820849 348.361663 
L 122.276034 316.922081 
L 122.731219 346.516494 
L 123.186405 347.999655 
L 123.64159 341.861127 
L 124.096775 352.3981 
L 124.55196 360.1254 
L 125.007145 322.528917 
L 125.462331 355.124316 
L 125.917516 340.232503 
L 126.372701 355.902722 
L 126.827886 340.740579 
L 127.283071 347.902177 
L 127.738257 356.889416 
L 128.193442 339.257135 
L 128.648627 350.364325 
L 129.103812 354.42843 
L 129.558997 329.07545 
L 130.469368 346.426848 
L 130.924553 353.302781 
L 131.379738 331.808453 
L 131.834923 347.592304 
L 132.290108 335.265076 
L 132.745294 326.638079 
L 133.655664 352.963463 
L 134.110849 351.043296 
L 134.566034 348.044095 
L 135.02122 363.413248 
L 135.476405 369.790085 
L 135.93159 363.781302 
L 136.84196 343.197984 
L 137.297145 343.746339 
L 138.207516 352.831821 
L 138.662701 352.471838 
L 139.117886 358.246703 
L 139.573071 356.987709 
L 140.028257 358.005443 
L 140.483442 363.564201 
L 140.938627 359.821759 
L 141.393812 365.591201 
L 141.848997 342.774762 
L 142.304183 334.348093 
L 142.759368 347.313335 
L 143.214553 344.337738 
L 143.669738 350.782162 
L 144.124923 361.442527 
L 144.580108 343.339791 
L 145.035294 360.895136 
L 145.490479 359.647974 
L 145.945664 357.364687 
L 146.400849 344.894627 
L 146.856034 339.76678 
L 147.31122 362.345417 
L 147.766405 354.384366 
L 148.22159 357.9399 
L 148.676775 358.851479 
L 149.13196 360.051187 
L 149.587146 366.623967 
L 150.042331 369.753561 
L 150.497516 363.455687 
L 150.952701 355.536205 
L 151.407886 367.243379 
L 151.863071 349.980949 
L 152.318257 346.638354 
L 152.773442 352.604542 
L 153.228627 362.604266 
L 153.683812 362.567903 
L 154.138997 354.294182 
L 154.594183 360.876707 
L 155.049368 364.964428 
L 155.504553 365.988004 
L 155.959738 353.489498 
L 156.414923 380.396609 
L 156.870109 369.007096 
L 157.325294 369.708621 
L 157.780479 367.755124 
L 158.235664 359.601038 
L 158.690849 365.718495 
L 159.146034 358.233512 
L 159.60122 367.108106 
L 160.056405 365.600477 
L 160.51159 356.258486 
L 160.966775 363.861426 
L 161.42196 362.514928 
L 161.877146 370.832484 
L 162.332331 370.202524 
L 162.787516 368.23578 
L 163.242701 367.616621 
L 163.697886 377.958578 
L 164.153072 361.562823 
L 164.608257 369.716451 
L 165.063442 360.273241 
L 165.518627 359.29786 
L 165.973812 356.843889 
L 166.428997 371.888606 
L 166.884183 368.550124 
L 167.339368 373.481528 
L 167.794553 364.857544 
L 168.249738 363.833678 
L 168.704923 360.744516 
L 169.160109 367.647456 
L 169.615294 358.904393 
L 170.070479 359.684052 
L 170.525664 360.015855 
L 170.980849 359.487726 
L 171.436035 377.876367 
L 171.89122 368.306072 
L 172.346405 371.639064 
L 172.80159 355.261281 
L 173.71196 372.770616 
L 174.167146 366.408595 
L 174.622331 368.375549 
L 175.077516 373.219943 
L 175.532701 351.826426 
L 176.443072 377.584817 
L 176.898257 363.289758 
L 177.353442 356.138393 
L 177.808627 377.748733 
L 178.718997 354.085294 
L 179.174183 362.091953 
L 179.629368 375.200002 
L 180.084553 373.894973 
L 180.539738 370.601982 
L 180.994923 372.283259 
L 181.450109 372.089193 
L 181.905294 368.782146 
L 182.360479 362.053904 
L 182.815664 378.265529 
L 183.270849 376.654637 
L 183.726035 377.801381 
L 184.18122 366.38785 
L 184.636405 357.831646 
L 185.09159 379.026705 
L 185.546775 383.413874 
L 186.00196 370.090033 
L 186.457146 368.712348 
L 186.912331 367.776652 
L 187.367516 382.574174 
L 187.822701 339.415937 
L 188.733072 389.349351 
L 189.188257 383.454121 
L 189.643442 369.533724 
L 190.098627 382.34369 
L 190.553812 374.713219 
L 191.008998 371.570476 
L 191.464183 376.799266 
L 191.919368 380.612932 
L 192.374553 375.418153 
L 192.829738 375.424328 
L 193.284923 375.868078 
L 193.740109 373.338504 
L 194.195294 384.144165 
L 194.650479 369.687432 
L 195.560849 383.839023 
L 196.016035 386.590281 
L 196.47122 375.061616 
L 196.926405 376.125995 
L 197.38159 376.557764 
L 197.836775 369.30933 
L 198.291961 376.171387 
L 198.747146 368.555626 
L 199.202331 374.878741 
L 199.657516 369.395567 
L 200.112701 380.323748 
L 201.023072 391.440412 
L 201.478257 384.946076 
L 201.933442 383.579698 
L 202.388627 359.278264 
L 202.843812 385.674403 
L 203.298998 396.862458 
L 203.754183 382.839186 
L 204.209368 385.464515 
L 204.664553 387.174541 
L 205.119738 370.832595 
L 205.574924 382.670058 
L 206.030109 388.252543 
L 206.485294 386.306735 
L 206.940479 392.963881 
L 207.395664 389.113327 
L 207.850849 383.455467 
L 208.306035 387.178765 
L 208.76122 383.135738 
L 209.216405 382.131931 
L 209.67159 374.207082 
L 210.126775 392.00877 
L 210.581961 381.06891 
L 211.037146 393.756714 
L 211.492331 373.061937 
L 211.947516 378.971278 
L 212.402701 396.732892 
L 212.857887 384.658707 
L 213.313072 387.053453 
L 213.768257 395.089446 
L 214.223442 383.953243 
L 214.678627 385.393173 
L 215.133812 387.675367 
L 215.588998 378.425382 
L 216.044183 378.553102 
L 216.499368 391.625146 
L 216.954553 394.414311 
L 217.409738 386.219805 
L 217.864924 393.618267 
L 218.320109 372.403365 
L 219.230479 374.277183 
L 219.685664 383.043374 
L 220.14085 379.996324 
L 220.596035 386.292172 
L 221.506405 395.376173 
L 221.96159 372.129342 
L 222.416775 388.111564 
L 222.871961 391.645884 
L 223.327146 385.427757 
L 223.782331 380.943685 
L 224.237516 389.859885 
L 224.692701 387.914355 
L 225.147887 367.358179 
L 225.603072 392.008275 
L 226.058257 393.505949 
L 226.513442 388.333377 
L 226.968627 390.056928 
L 227.423813 382.320197 
L 227.878998 366.129847 
L 228.334183 394.900154 
L 228.789368 390.150626 
L 229.244553 400.277661 
L 229.699738 391.949161 
L 230.154924 394.888081 
L 230.610109 384.958557 
L 231.065294 391.884168 
L 231.520479 386.044495 
L 231.975664 394.67424 
L 232.43085 398.811169 
L 232.886035 394.291087 
L 233.34122 392.651742 
L 233.796405 368.586388 
L 234.25159 383.743071 
L 234.706776 379.92371 
L 235.161961 355.217186 
L 235.617146 393.98356 
L 236.072331 386.823778 
L 236.527516 365.589799 
L 236.982701 389.19765 
L 237.437887 395.603723 
L 237.893072 390.947441 
L 238.348257 382.489573 
L 238.803442 400.872235 
L 239.258627 392.876946 
L 239.713813 376.729147 
L 240.624183 389.669506 
L 241.079368 391.942467 
L 241.534553 384.425778 
L 241.989739 393.012991 
L 242.444924 395.869724 
L 242.900109 392.252161 
L 243.355294 406.214651 
L 243.810479 400.09452 
L 244.265664 379.279477 
L 244.72085 405.561093 
L 245.176035 390.180936 
L 245.63122 391.281832 
L 246.086405 394.051259 
L 246.54159 375.325857 
L 246.996776 390.861642 
L 247.451961 383.4247 
L 247.907146 390.868324 
L 248.362331 391.445822 
L 248.817516 399.190642 
L 249.272702 384.039974 
L 250.183072 406.448337 
L 250.638257 392.544315 
L 251.093442 393.118145 
L 251.548627 401.384702 
L 252.914183 379.025557 
L 253.369368 387.509993 
L 253.824553 398.664854 
L 254.279739 387.716849 
L 254.734924 403.064331 
L 255.190109 363.379689 
L 255.645294 389.875102 
L 256.100479 387.770794 
L 256.555665 387.657618 
L 257.01085 382.988521 
L 257.466035 391.833447 
L 257.92122 393.070079 
L 258.376405 398.843826 
L 258.83159 372.917166 
L 259.286776 389.992255 
L 259.741961 384.132678 
L 260.197146 397.766312 
L 260.652331 406.98753 
L 261.107516 402.886884 
L 261.562702 384.759254 
L 262.017887 402.551863 
L 262.473072 398.80038 
L 262.928257 397.655198 
L 263.383442 403.721557 
L 263.838627 384.756679 
L 264.293813 403.885856 
L 264.748998 384.048194 
L 265.204183 411.468641 
L 265.659368 392.079463 
L 266.114553 398.073239 
L 266.569739 382.377409 
L 267.024924 395.38853 
L 267.480109 395.317201 
L 267.935294 390.831004 
L 268.390479 399.935656 
L 268.845665 400.547775 
L 269.30085 393.367903 
L 269.756035 395.776514 
L 270.21122 395.810956 
L 270.666405 401.266752 
L 271.12159 405.205866 
L 271.576776 399.397665 
L 272.031961 395.631162 
L 272.487146 388.351367 
L 272.942331 402.682813 
L 273.397516 379.044695 
L 273.852702 403.20305 
L 274.307887 383.915052 
L 274.763072 400.711456 
L 275.218257 399.90143 
L 275.673442 397.293894 
L 276.128628 411.912514 
L 276.583813 398.165084 
L 277.038998 394.660876 
L 277.494183 407.443434 
L 277.949368 401.189636 
L 278.404553 403.084742 
L 278.859739 385.524426 
L 279.314924 400.739852 
L 279.770109 395.522321 
L 280.225294 375.716465 
L 280.680479 386.005175 
L 281.135665 390.347643 
L 281.59085 402.442955 
L 282.046035 392.795538 
L 282.50122 392.929372 
L 282.956405 400.984546 
L 283.411591 382.233682 
L 283.866776 400.36779 
L 284.321961 406.978217 
L 284.777146 405.291777 
L 285.232331 407.155979 
L 285.687516 403.246829 
L 286.142702 413.572637 
L 286.597887 398.994304 
L 287.053072 400.56503 
L 287.508257 411.625115 
L 288.418628 381.030565 
L 288.873813 404.995404 
L 289.328998 395.323271 
L 289.784183 402.473321 
L 290.239368 395.518906 
L 290.694554 395.316978 
L 291.149739 401.100872 
L 291.604924 403.588878 
L 292.060109 390.72125 
L 292.970479 405.044877 
L 293.425665 393.709124 
L 293.88085 395.414833 
L 294.336035 393.057005 
L 294.79122 377.700995 
L 295.246405 412.755222 
L 295.701591 407.968923 
L 296.156776 390.95773 
L 296.611961 400.312103 
L 297.067146 398.825441 
L 297.522331 405.010732 
L 297.977517 399.071093 
L 298.432702 400.617647 
L 298.887887 403.615254 
L 299.343072 401.112254 
L 299.798257 409.136871 
L 300.253442 396.432653 
L 300.708628 411.019972 
L 301.163813 384.228964 
L 301.618998 403.776434 
L 302.074183 395.663319 
L 302.529368 399.914171 
L 302.984554 397.44673 
L 303.439739 406.775647 
L 303.894924 409.936201 
L 304.350109 405.700967 
L 304.805294 398.966019 
L 305.26048 388.966703 
L 305.715665 397.766806 
L 306.17085 386.069674 
L 306.626035 399.731116 
L 307.08122 392.68251 
L 307.536405 391.696266 
L 307.991591 400.812991 
L 308.446776 401.128015 
L 308.901961 384.372352 
L 309.357146 399.305103 
L 309.812331 396.600799 
L 310.267517 406.00656 
L 310.722702 392.082557 
L 311.177887 397.853142 
L 311.633072 400.754729 
L 312.088257 405.949244 
L 312.543443 404.821119 
L 312.998628 401.161153 
L 313.453813 406.826492 
L 313.908998 397.098963 
L 314.364183 412.643358 
L 314.819368 403.252425 
L 315.274554 403.803638 
L 315.729739 405.149142 
L 316.184924 394.855374 
L 316.640109 400.08932 
L 317.095294 410.289792 
L 317.55048 413.490179 
L 318.005665 410.835308 
L 318.46085 395.220026 
L 318.916035 411.37195 
L 319.37122 399.582084 
L 319.826406 396.988498 
L 320.281591 385.474199 
L 320.736776 394.084249 
L 321.191961 410.416524 
L 321.647146 377.782996 
L 322.102331 389.958178 
L 322.557517 409.003192 
L 323.012702 405.795802 
L 323.467887 382.166694 
L 323.923072 406.326879 
L 324.378257 398.029595 
L 324.833443 403.478968 
L 325.743813 395.016215 
L 326.198998 406.9968 
L 326.654183 394.983558 
L 327.109369 401.283291 
L 327.564554 399.024497 
L 328.019739 405.700813 
L 328.474924 399.0902 
L 328.930109 405.660566 
L 329.385294 408.556564 
L 329.84048 404.450267 
L 330.295665 392.170135 
L 331.206035 409.293512 
L 331.66122 410.840953 
L 332.116406 406.574461 
L 332.571591 409.460424 
L 333.026776 407.25458 
L 333.481961 405.875654 
L 333.937146 403.198325 
L 334.392332 411.203273 
L 334.847517 409.466683 
L 335.302702 390.448746 
L 335.757887 408.74207 
L 336.213072 413.971304 
L 336.668257 408.346636 
L 337.123443 390.530241 
L 337.578628 403.66366 
L 338.033813 398.431819 
L 338.488998 409.972403 
L 338.944183 388.836531 
L 339.399369 387.717942 
L 340.764924 411.620915 
L 341.220109 375.353499 
L 341.675295 395.26375 
L 342.13048 402.782835 
L 342.585665 393.599913 
L 343.04085 397.388926 
L 343.496035 410.830291 
L 343.95122 389.084277 
L 344.406406 395.559937 
L 344.861591 407.627881 
L 345.316776 395.764267 
L 345.771961 400.809175 
L 346.227146 372.276497 
L 346.682332 399.518585 
L 347.592702 411.680848 
L 348.047887 394.702241 
L 348.503072 398.447926 
L 348.958258 395.264442 
L 349.413443 408.232703 
L 349.868628 400.9401 
L 350.323813 383.64957 
L 350.778998 390.89199 
L 351.234183 404.330149 
L 351.689369 390.667613 
L 352.144554 400.765852 
L 353.054924 404.692954 
L 353.510109 401.709298 
L 353.965295 406.934709 
L 354.42048 399.59824 
L 354.875665 411.373803 
L 355.33085 411.017285 
L 355.786035 402.401577 
L 356.24122 399.645447 
L 356.696406 402.664132 
L 357.151591 402.3223 
L 357.606776 397.310235 
L 358.061961 416.460891 
L 358.517146 393.497507 
L 358.972332 400.434802 
L 359.427517 401.574025 
L 359.882702 409.404095 
L 360.337887 406.555017 
L 360.793072 393.976699 
L 361.248258 406.412024 
L 361.703443 394.89698 
L 362.158628 405.304261 
L 362.613813 401.557956 
L 363.068998 412.956522 
L 363.524183 415.70363 
L 363.979369 399.527602 
L 364.434554 394.669201 
L 364.889739 402.727408 
L 365.344924 405.154734 
L 365.800109 381.74157 
L 366.255295 398.339134 
L 366.71048 399.051269 
L 367.165665 410.828969 
L 367.62085 409.587251 
L 368.076035 410.473248 
L 368.531221 405.966786 
L 368.986406 389.738952 
L 369.441591 411.833687 
L 369.896776 392.789911 
L 370.351961 399.864987 
L 370.807146 414.332466 
L 371.262332 405.603743 
L 371.717517 382.956451 
L 372.172702 413.781287 
L 372.627887 416.868093 
L 373.083072 403.740127 
L 373.538258 411.553097 
L 373.993443 408.15437 
L 374.448628 391.369644 
L 374.903813 414.211842 
L 375.358998 388.693638 
L 375.814184 397.590044 
L 376.269369 412.032684 
L 376.724554 414.12251 
L 377.179739 402.898062 
L 377.634924 395.473613 
L 378.090109 410.184378 
L 378.545295 395.494851 
L 379.00048 400.139097 
L 379.455665 407.762348 
L 379.91085 407.452216 
L 380.366035 405.975435 
L 380.821221 411.644565 
L 381.276406 403.914153 
L 382.186776 410.978113 
L 382.641961 409.806023 
L 383.097147 405.723169 
L 383.552332 400.263556 
L 384.007517 406.149621 
L 384.462702 403.135988 
L 384.917887 404.798942 
L 385.373072 400.894165 
L 385.828258 409.438348 
L 386.283443 415.27406 
L 386.738628 419.389991 
L 387.193813 401.41085 
L 387.648998 400.635439 
L 388.104184 418.964953 
L 389.014554 404.181067 
L 389.469739 411.427637 
L 389.924924 405.187376 
L 390.38011 415.096137 
L 390.835295 402.344921 
L 391.29048 407.959292 
L 391.745665 394.655577 
L 392.20085 410.836571 
L 392.656035 396.446659 
L 393.111221 400.67878 
L 393.566406 402.521145 
L 394.021591 415.221233 
L 394.476776 415.874049 
L 394.931961 405.210455 
L 395.387147 398.868233 
L 395.842332 411.814169 
L 396.297517 415.233044 
L 396.752702 399.11071 
L 397.207887 418.308502 
L 397.663073 416.057721 
L 398.118258 403.275719 
L 398.573443 406.821795 
L 399.028628 415.985722 
L 399.483813 419.853126 
L 399.938998 415.885054 
L 400.394184 419.497019 
L 400.849369 416.724415 
L 401.304554 400.892053 
L 402.214924 415.736284 
L 402.67011 400.653244 
L 403.125295 399.409324 
L 403.58048 401.609696 
L 404.035665 410.903232 
L 404.49085 409.287083 
L 404.946036 416.476478 
L 405.401221 405.949176 
L 405.856406 414.906259 
L 406.311591 403.363921 
L 406.766776 404.137442 
L 407.221961 399.434132 
L 407.677147 407.283674 
L 408.132332 403.211134 
L 408.587517 400.454633 
L 409.042702 414.873021 
L 409.497887 397.148443 
L 409.953073 397.84525 
L 410.408258 412.956245 
L 410.863443 395.868155 
L 411.318628 415.606468 
L 411.773813 405.469606 
L 412.228999 403.717178 
L 412.684184 414.618004 
L 413.139369 408.356749 
L 413.594554 406.072082 
L 414.049739 399.393021 
L 414.504924 411.569648 
L 414.96011 412.145082 
L 415.415295 401.884948 
L 415.87048 415.581703 
L 416.325665 376.503807 
L 416.78085 410.932335 
L 417.236036 404.980712 
L 417.691221 410.392012 
L 418.146406 402.637799 
L 418.601591 399.383942 
L 419.056776 414.212991 
L 419.511962 388.649531 
L 419.967147 385.862738 
L 420.422332 405.653908 
L 420.877517 401.723601 
L 421.332702 405.369943 
L 421.787887 405.400624 
L 422.243073 412.702126 
L 422.698258 404.082855 
L 423.153443 415.192843 
L 423.608628 414.882451 
L 424.063813 396.492928 
L 424.518999 419.95484 
L 424.974184 408.162176 
L 425.429369 410.102519 
L 425.884554 407.679921 
L 426.339739 395.18869 
L 426.794925 408.877544 
L 427.25011 396.278235 
L 427.705295 408.777022 
L 428.16048 407.233997 
L 428.615665 410.64672 
L 429.07085 410.764658 
L 429.526036 400.598237 
L 429.981221 415.158543 
L 430.436406 408.010501 
L 430.891591 413.552634 
L 431.346776 404.441145 
L 431.801962 415.362206 
L 432.712332 406.467849 
L 433.167517 420.957768 
L 433.622702 398.364442 
L 434.077888 410.368557 
L 434.533073 400.500055 
L 435.898628 416.95262 
L 436.353813 417.516235 
L 436.808999 411.804989 
L 437.264184 407.813928 
L 437.719369 401.48281 
L 438.174554 388.42944 
L 438.629739 405.000591 
L 439.084925 416.546128 
L 439.54011 399.964626 
L 439.995295 410.893045 
L 440.45048 417.635475 
L 440.905665 406.802734 
L 441.36085 412.570614 
L 441.816036 403.335068 
L 442.271221 408.322455 
L 442.726406 415.197546 
L 443.181591 409.650691 
L 443.636776 409.360862 
L 444.091962 402.635322 
L 444.547147 413.172889 
L 445.002332 406.959474 
L 445.457517 406.741736 
L 445.912702 414.687036 
L 446.367888 419.64171 
L 446.823073 412.744127 
L 447.278258 401.555769 
L 447.733443 412.849207 
L 448.188628 404.360077 
L 448.643813 414.765718 
L 449.098999 420.084203 
L 449.554184 416.380927 
L 450.009369 417.449327 
L 450.464554 405.812569 
L 450.919739 414.064314 
L 451.374925 397.145392 
L 451.83011 403.424727 
L 452.285295 420.073837 
L 452.74048 416.768599 
L 453.195665 408.318947 
L 453.650851 405.104498 
L 454.106036 408.489156 
L 454.561221 415.545915 
L 455.016406 416.222384 
L 455.471591 415.352507 
L 456.381962 406.772566 
L 456.837147 409.93001 
L 457.292332 410.171897 
L 457.747517 398.430325 
L 458.202702 382.325953 
L 458.657888 417.778999 
L 459.113073 401.706 
L 459.568258 405.875394 
L 460.023443 408.647464 
L 460.478628 406.710654 
L 460.933814 417.143579 
L 461.388999 399.308216 
L 461.844184 419.068047 
L 462.299369 403.089244 
L 462.754554 415.373967 
L 463.209739 404.381272 
L 463.664925 411.995402 
L 464.12011 383.08401 
L 464.575295 396.455349 
L 465.940851 413.165246 
L 466.396036 406.049052 
L 466.851221 404.884056 
L 467.306406 400.822687 
L 467.761591 409.224838 
L 468.216777 404.678861 
L 468.671962 411.358404 
L 469.127147 407.809456 
L 469.582332 407.692396 
L 470.037517 412.572013 
L 470.492702 411.464432 
L 470.947888 418.654765 
L 471.403073 414.104755 
L 471.858258 421.801411 
L 472.313443 408.819032 
L 472.768628 413.074414 
L 473.223814 406.902564 
L 473.678999 409.193809 
L 474.134184 400.042212 
L 474.589369 408.769231 
L 475.49974 399.386876 
L 475.954925 415.976449 
L 476.865295 409.627662 
L 477.32048 419.525535 
L 477.775665 419.989844 
L 478.230851 412.336011 
L 478.686036 407.620532 
L 479.141221 417.77186 
L 479.596406 422.871737 
L 480.051591 413.009013 
L 480.506777 412.949346 
L 480.961962 414.13032 
L 481.417147 419.030014 
L 481.872332 418.109221 
L 482.327517 419.437006 
L 482.782703 419.57974 
L 483.237888 410.457151 
L 483.693073 417.686687 
L 484.148258 408.868604 
L 484.603443 415.108297 
L 485.058628 402.340753 
L 485.513814 403.456816 
L 486.424184 411.443354 
L 486.879369 414.941624 
L 487.334554 410.396832 
L 487.78974 409.704192 
L 488.244925 418.382768 
L 488.70011 397.049626 
L 489.155295 419.268737 
L 489.61048 421.02198 
L 490.065666 412.98465 
L 490.520851 411.283119 
L 490.976036 402.848736 
L 491.431221 417.577627 
L 491.886406 417.52224 
L 492.341591 396.77966 
L 492.796777 406.571719 
L 493.251962 397.370158 
L 493.707147 403.644935 
L 494.162332 415.75056 
L 494.617517 414.160334 
L 495.072703 417.053639 
L 495.527888 414.388134 
L 495.983073 402.506052 
L 496.438258 415.34894 
L 496.893443 386.440538 
L 497.348629 406.031418 
L 497.803814 404.499129 
L 498.258999 404.285307 
L 498.714184 415.180108 
L 499.169369 417.984972 
L 499.624554 406.299913 
L 500.07974 411.580992 
L 500.534925 418.451164 
L 500.99011 417.405217 
L 501.445295 414.517386 
L 501.90048 425.188543 
L 502.355666 411.488094 
L 502.810851 418.479325 
L 503.266036 416.183959 
L 503.721221 414.894691 
L 504.176406 407.29605 
L 504.631592 412.174911 
L 505.086777 410.701697 
L 505.541962 412.607119 
L 505.997147 407.634307 
L 506.452332 418.18571 
L 506.907517 397.130929 
L 507.362703 425.214153 
L 507.817888 404.869984 
L 508.273073 413.171505 
L 508.728258 403.017364 
L 509.183443 426.25181 
L 509.638629 399.1006 
L 510.093814 419.039735 
L 510.548999 417.448039 
L 511.004184 409.869528 
L 511.914555 414.414854 
L 512.36974 404.107749 
L 513.28011 418.630606 
L 513.735295 404.141969 
L 514.19048 411.479513 
L 514.645666 403.251461 
L 515.100851 419.379016 
L 515.556036 411.038455 
L 516.011221 414.546029 
L 516.466406 419.27612 
L 516.921592 399.435874 
L 517.376777 412.157693 
L 517.831962 393.924218 
L 518.287147 402.876373 
L 518.742332 420.488046 
L 519.197518 417.589695 
L 519.652703 405.50264 
L 520.107888 413.047352 
L 520.563073 415.302499 
L 521.018258 410.628647 
L 521.473443 404.475248 
L 521.928629 411.295943 
L 522.383814 405.254846 
L 522.838999 403.461899 
L 523.294184 418.879969 
L 523.749369 399.513206 
L 524.204555 402.352474 
L 524.65974 417.938728 
L 525.114925 409.660381 
L 526.025295 417.836643 
L 526.480481 400.806025 
L 527.390851 417.899957 
L 527.846036 416.956609 
L 528.301221 401.300163 
L 528.756406 424.522303 
L 529.666777 409.835744 
L 530.121962 423.253372 
L 530.577147 413.652572 
L 531.032332 411.803988 
L 531.487518 420.363778 
L 531.942703 414.333794 
L 532.397888 423.918707 
L 532.853073 413.406785 
L 533.308258 422.298519 
L 534.218629 412.235436 
L 534.673814 404.839739 
L 535.128999 410.233753 
L 535.584184 417.146087 
L 536.039369 417.133254 
L 536.494555 420.307845 
L 536.94974 412.034512 
L 537.404925 420.189052 
L 537.86011 409.483891 
L 538.315295 420.255159 
L 538.770481 419.888955 
L 539.225666 406.213889 
L 539.680851 421.560515 
L 540.136036 405.561013 
L 540.591221 420.656813 
L 541.046406 412.713517 
L 541.501592 415.275032 
L 541.956777 415.095186 
L 542.411962 416.000133 
L 542.867147 415.829139 
L 543.322332 418.781411 
L 543.777518 403.873517 
L 544.232703 404.878809 
L 544.687888 416.348536 
L 545.143073 414.108831 
L 545.598258 407.222127 
L 546.053444 420.527212 
L 546.508629 410.830244 
L 546.963814 413.252321 
L 547.418999 408.212907 
L 547.874184 416.43687 
L 548.329369 413.542987 
L 548.784555 415.259964 
L 549.23974 414.023338 
L 549.694925 418.722856 
L 550.15011 417.414675 
L 550.605295 418.60212 
L 551.060481 415.109576 
L 551.515666 410.711494 
L 551.970851 394.438841 
L 552.426036 420.803588 
L 552.881221 415.265587 
L 553.791592 424.581398 
L 554.246777 415.198117 
L 554.701962 416.664659 
L 555.157147 411.297141 
L 555.612332 402.670308 
L 556.067518 415.452081 
L 556.522703 411.330443 
L 556.977888 420.156373 
L 557.433073 401.574432 
L 557.888258 413.57918 
L 558.343444 407.609589 
L 558.798629 424.162839 
L 559.253814 414.771146 
L 559.708999 414.48031 
L 560.164184 427.635822 
L 560.61937 426.383587 
L 561.074555 421.408055 
L 561.52974 423.53831 
L 562.44011 415.000336 
L 562.895295 418.597396 
L 563.350481 418.293066 
L 563.805666 415.047287 
L 564.260851 415.525634 
L 564.716036 419.22857 
L 565.171221 412.071113 
L 565.626407 414.05782 
L 566.081592 420.191099 
L 566.536777 416.47205 
L 566.991962 426.831781 
L 567.447147 416.589892 
L 567.902333 414.36626 
L 568.357518 400.718107 
L 568.812703 404.427157 
L 569.723073 426.657113 
L 570.178258 417.86671 
L 570.633444 415.454749 
L 571.088629 392.364645 
L 571.543814 412.627601 
L 571.998999 417.507496 
L 572.454184 410.543046 
L 572.90937 415.238528 
L 573.364555 411.358191 
L 573.81974 417.880003 
L 574.274925 405.91545 
L 574.73011 420.967807 
L 575.185296 422.642405 
L 575.640481 419.317741 
L 576.095666 422.859556 
L 577.006036 405.760251 
L 577.461221 419.277077 
L 577.916407 414.622941 
L 578.371592 420.295339 
L 578.826777 416.951928 
L 579.281962 416.665029 
L 579.737147 412.564633 
L 580.192333 395.144836 
L 580.647518 421.331183 
L 581.102703 417.174344 
L 581.557888 408.335143 
L 582.013073 410.996874 
L 582.468259 422.661278 
L 582.923444 419.523399 
L 583.378629 414.941945 
L 583.833814 424.561828 
L 584.288999 427.82094 
L 584.744184 421.01661 
L 585.19937 425.692432 
L 585.654555 409.287942 
L 586.10974 411.355069 
L 586.564925 424.721053 
L 587.02011 407.860088 
L 587.475296 420.455469 
L 587.930481 420.458594 
L 588.385666 413.079302 
L 588.840851 408.907691 
L 589.296036 420.789461 
L 589.751222 414.266136 
L 590.206407 411.703235 
L 590.661592 421.384365 
L 591.116777 419.336565 
L 591.571962 404.768316 
L 592.027147 407.39862 
L 592.482333 417.011549 
L 592.937518 418.739515 
L 593.392703 410.989068 
L 593.847888 423.804592 
L 594.303073 414.243005 
L 595.213444 423.643921 
L 595.668629 413.280745 
L 596.123814 412.866067 
L 596.578999 418.166306 
L 597.034185 407.193206 
L 597.48937 418.553045 
L 597.944555 421.09289 
L 598.39974 422.996888 
L 598.854925 422.748624 
L 599.31011 426.122024 
L 599.765296 417.309471 
L 600.220481 422.714797 
L 600.675666 411.408363 
L 601.130851 417.50983 
L 601.586036 414.74103 
L 602.041222 404.954304 
L 602.951592 415.834173 
L 603.406777 415.70556 
L 603.861962 413.116489 
L 604.317148 393.720265 
L 604.772333 380.267018 
L 605.227518 418.786308 
L 605.682703 403.881755 
L 606.137888 413.321844 
L 606.593073 415.472763 
L 607.048259 405.528455 
L 607.503444 428.369241 
L 608.413814 403.66642 
L 609.324185 424.540083 
L 609.77937 422.50561 
L 610.234555 419.456028 
L 610.68974 391.521419 
L 611.144925 423.859608 
L 611.600111 413.812675 
L 612.055296 416.602506 
L 612.510481 416.545937 
L 612.965666 417.072555 
L 613.420851 400.701137 
L 613.876036 414.006209 
L 614.331222 416.14806 
L 614.786407 422.762507 
L 615.241592 421.691076 
L 615.696777 419.201885 
L 616.151962 413.790405 
L 616.607148 412.512303 
L 617.062333 422.014677 
L 617.517518 407.969046 
L 617.972703 418.080911 
L 618.427888 413.258117 
L 618.883074 420.145791 
L 619.793444 422.785234 
L 620.248629 402.103815 
L 620.703814 407.129584 
L 621.158999 415.689627 
L 621.614185 413.86263 
L 622.06937 398.01707 
L 622.97974 430.44357 
L 623.434925 410.996143 
L 623.890111 414.735908 
L 624.345296 414.177709 
L 624.800481 426.766902 
L 625.255666 412.839669 
L 625.710851 421.510507 
L 626.166036 408.425089 
L 626.621222 423.828112 
L 627.076407 409.756157 
L 627.531592 410.176804 
L 627.986777 422.625811 
L 628.441962 419.249777 
L 628.897148 418.588975 
L 629.352333 426.445684 
L 629.807518 397.259044 
L 630.262703 406.476536 
L 630.717888 424.758148 
L 631.173074 425.540812 
L 631.628259 417.829146 
L 632.538629 426.794375 
L 632.993814 425.970216 
L 633.448999 415.122832 
L 633.904185 421.728494 
L 634.35937 422.103691 
L 634.814555 423.811058 
L 635.26974 412.00519 
L 635.724925 425.027014 
L 636.635296 410.566986 
L 637.090481 409.573958 
L 638.000851 425.88009 
L 638.456037 423.175904 
L 638.911222 413.060923 
L 639.366407 416.520165 
L 639.821592 423.893803 
L 640.276777 414.656247 
L 640.731962 419.031493 
L 641.187148 416.737727 
L 641.642333 415.794617 
L 642.097518 417.693286 
L 642.552703 422.122163 
L 643.007888 421.891107 
L 643.463074 413.787638 
L 643.918259 426.781609 
L 644.373444 425.968743 
L 644.828629 416.751708 
L 645.283814 413.230965 
L 645.739 426.595053 
L 646.194185 412.42106 
L 646.64937 429.243887 
L 648.014925 418.40925 
L 648.470111 424.229951 
L 648.925296 408.24004 
L 649.380481 414.718859 
L 649.835666 410.797257 
L 650.290851 421.226353 
L 650.746037 423.81979 
L 651.201222 407.198431 
L 651.656407 423.757675 
L 652.111592 424.096716 
L 652.566777 419.132676 
L 653.021963 411.727141 
L 653.477148 397.109969 
L 654.387518 419.776554 
L 654.842703 411.86841 
L 655.297888 413.572918 
L 655.753074 419.544279 
L 656.208259 413.475582 
L 656.663444 421.24257 
L 657.118629 414.916612 
L 657.573814 426.766751 
L 658.029 416.900932 
L 658.484185 417.667651 
L 658.93937 407.692383 
L 659.394555 424.58062 
L 659.84974 419.186637 
L 660.304926 410.67734 
L 660.760111 405.090355 
L 661.215296 418.231278 
L 661.670481 411.955222 
L 662.125666 413.859042 
L 662.580851 422.698876 
L 663.036037 419.194409 
L 663.491222 425.277328 
L 663.946407 422.597949 
L 664.401592 422.473805 
L 664.856777 424.569418 
L 665.311963 416.494493 
L 665.767148 423.612388 
L 666.222333 417.586372 
L 666.677518 425.729412 
L 667.132703 420.223336 
L 667.587889 411.261498 
L 668.043074 427.244229 
L 668.498259 410.282359 
L 668.953444 421.451995 
L 669.408629 404.422748 
L 669.863814 417.714321 
L 670.319 416.852505 
L 671.22937 425.252705 
L 671.684555 417.032441 
L 672.594926 407.746828 
L 673.050111 407.574365 
L 673.505296 421.461592 
L 673.960481 414.869924 
L 674.415666 415.32974 
L 674.870852 422.309426 
L 675.326037 415.927948 
L 675.781222 418.454354 
L 676.236407 414.116767 
L 676.691592 416.607959 
L 677.146777 413.708515 
L 677.601963 423.757548 
L 678.057148 430.322272 
L 678.512333 407.254037 
L 678.967518 425.747059 
L 679.422703 418.998259 
L 679.877889 430.617935 
L 680.333074 416.914414 
L 680.788259 424.250942 
L 681.698629 429.265755 
L 682.153815 421.479298 
L 682.609 416.268282 
L 683.064185 412.397472 
L 683.51937 418.314489 
L 683.974555 409.749913 
L 684.42974 398.164652 
L 684.884926 419.607889 
L 685.340111 411.511509 
L 685.795296 421.460521 
L 686.250481 410.604265 
L 686.705666 423.036191 
L 687.160852 403.320512 
L 687.616037 419.436018 
L 688.071222 424.30866 
L 688.526407 431.2007 
L 688.981592 420.202586 
L 689.436778 419.129968 
L 689.891963 408.798813 
L 690.347148 423.298708 
L 690.802333 417.090511 
L 691.257518 414.218389 
L 691.712703 412.59667 
L 692.167889 420.505288 
L 692.623074 419.426375 
L 693.533444 425.199146 
L 693.988629 403.041925 
L 694.443815 400.517816 
L 694.899 420.460925 
L 695.354185 394.409586 
L 695.80937 423.427404 
L 696.264555 415.165935 
L 696.719741 415.924193 
L 697.630111 404.639676 
L 698.540481 419.952352 
L 698.995666 412.633273 
L 699.450852 416.787385 
L 699.906037 412.585152 
L 700.361222 419.717409 
L 700.816407 402.751481 
L 701.271592 400.663489 
L 701.726778 418.284685 
L 702.181963 420.95338 
L 702.637148 415.740024 
L 703.092333 413.858131 
L 703.547518 423.781464 
L 704.002704 398.623396 
L 704.457889 402.945603 
L 704.913074 419.775862 
L 705.368259 418.217846 
L 705.823444 418.899429 
L 706.278629 423.123969 
L 706.733815 412.830593 
L 707.189 422.151266 
L 707.644185 427.335627 
L 708.09937 420.649924 
L 708.554555 429.922537 
L 709.009741 424.37609 
L 709.920111 421.87531 
L 710.375296 427.431582 
L 710.830481 415.745514 
L 711.285666 410.482897 
L 711.740852 422.522173 
L 712.196037 413.376536 
L 712.651222 416.101161 
L 713.106407 420.974084 
L 713.561592 433.491679 
L 714.016778 416.00495 
L 714.471963 412.397688 
L 714.927148 419.163753 
L 715.382333 419.767018 
L 715.837518 425.718438 
L 716.292704 418.902165 
L 716.747889 420.416834 
L 717.203074 418.693703 
L 717.658259 420.829504 
L 718.113444 423.965531 
L 718.568629 415.355141 
L 719.023815 422.125871 
L 719.479 434.667807 
L 719.934185 401.320771 
L 720.38937 418.286347 
L 720.844555 419.242928 
L 721.299741 417.165963 
L 721.754926 420.665014 
L 722.210111 413.71789 
L 722.665296 421.861427 
L 723.120481 413.889624 
L 723.575667 415.524176 
L 724.030852 413.946305 
L 724.486037 426.066847 
L 724.941222 423.931497 
L 725.396407 434.251783 
L 725.851592 427.352236 
L 726.306778 424.233113 
L 726.761963 425.087894 
L 727.217148 407.167645 
L 727.672333 419.786373 
L 728.127518 419.417365 
L 728.582704 427.874004 
L 729.037889 415.737371 
L 729.493074 426.469529 
L 729.948259 428.661442 
L 730.403444 409.317659 
L 730.85863 415.34702 
L 731.313815 428.858664 
L 731.769 427.376418 
L 732.224185 409.881027 
L 732.67937 427.674797 
L 733.134555 420.668087 
L 733.589741 409.970109 
L 734.044926 412.75349 
L 734.500111 420.553459 
L 734.955296 424.585116 
L 735.410481 418.854494 
L 735.865667 415.003609 
L 736.320852 412.494866 
L 736.776037 420.32643 
L 737.231222 423.326144 
L 737.686407 404.378555 
L 738.141593 420.071404 
L 738.596778 411.948025 
L 739.051963 417.047362 
L 739.507148 410.380507 
L 739.962333 415.20638 
L 740.417518 414.014173 
L 740.872704 415.268755 
L 741.327889 402.970806 
L 741.783074 409.300806 
L 742.238259 410.591858 
L 742.693444 419.296886 
L 743.14863 416.395576 
L 743.603815 409.295655 
L 744.514185 430.224057 
L 744.96937 418.209481 
L 745.424556 428.409955 
L 745.879741 417.797242 
L 746.334926 425.314635 
L 746.790111 425.654374 
L 747.245296 418.613907 
L 747.700481 414.702281 
L 748.155667 431.628307 
L 748.610852 429.961629 
L 749.521222 410.015584 
L 749.976407 420.00885 
L 750.431593 423.242799 
L 750.886778 419.162292 
L 751.341963 420.988298 
L 751.797148 423.724857 
L 752.252333 428.159202 
L 752.707519 420.833423 
L 753.162704 428.707671 
L 753.617889 407.890266 
L 754.073074 423.764975 
L 754.528259 413.23241 
L 754.983444 422.753645 
L 755.43863 418.67223 
L 755.893815 419.538751 
L 756.349 405.022985 
L 756.804185 410.741193 
L 757.25937 429.855706 
L 757.714556 420.800278 
L 758.169741 433.732618 
L 758.624926 414.509009 
L 759.080111 411.790417 
L 759.535296 412.739576 
L 759.990482 425.014248 
L 760.445667 414.312982 
L 760.900852 419.45223 
L 761.356037 422.925414 
L 761.811222 429.305564 
L 762.266407 419.528555 
L 762.721593 416.938688 
L 763.176778 420.421225 
L 763.631963 420.307909 
L 764.087148 433.858242 
L 764.542333 427.57468 
L 764.997519 425.210056 
L 765.452704 426.727532 
L 765.907889 402.236395 
L 766.363074 420.709828 
L 766.818259 424.126069 
L 767.273445 418.588623 
L 767.72863 427.124803 
L 768.183815 425.840946 
L 768.639 425.301774 
L 769.094185 434.657358 
L 769.54937 413.233528 
L 770.004556 420.830925 
L 770.459741 425.592345 
L 770.914926 431.791019 
L 771.825296 418.622769 
L 772.280482 431.998514 
L 772.735667 419.764387 
L 773.190852 396.808285 
L 773.646037 417.854207 
L 774.101222 416.938021 
L 774.556408 403.729091 
L 775.011593 409.349236 
L 775.921963 429.623298 
L 776.377148 432.709861 
L 776.832333 425.341636 
L 777.287519 426.071967 
L 777.742704 415.624763 
L 778.197889 420.792101 
L 778.653074 420.769801 
L 779.108259 432.867907 
L 779.563445 399.068487 
L 780.01863 422.687228 
L 780.473815 417.306229 
L 780.929 428.39219 
L 781.384185 417.888989 
L 781.839371 418.1847 
L 782.294556 426.728356 
L 783.204926 415.82351 
L 783.660111 433.479494 
L 784.115296 411.431185 
L 785.025667 418.389129 
L 785.480852 423.302772 
L 785.936037 422.177812 
L 786.391222 409.942846 
L 786.846408 421.441802 
L 787.301593 422.488716 
L 787.756778 412.840589 
L 788.211963 430.176599 
L 788.667148 425.599954 
L 789.122334 425.942981 
L 789.577519 423.930783 
L 790.032704 423.382769 
L 790.487889 420.350945 
L 790.943074 424.744873 
L 791.398259 419.647321 
L 791.853445 427.374614 
L 792.30863 414.533041 
L 792.763815 423.716489 
L 793.219 412.880493 
L 793.674185 419.085268 
L 794.129371 422.872861 
L 794.584556 422.602945 
L 795.039741 419.561213 
L 795.494926 414.401495 
L 795.950111 422.681087 
L 796.405297 416.957134 
L 796.860482 433.062429 
L 797.315667 427.77485 
L 797.770852 420.940695 
L 798.226037 420.950496 
L 798.681222 429.681146 
L 799.136408 420.904431 
L 799.591593 429.858627 
L 800.046778 419.8631 
L 800.501963 423.254978 
L 800.957148 424.014563 
L 801.412334 406.362103 
L 801.867519 426.605114 
L 802.322704 428.643974 
L 802.777889 419.754824 
L 803.233074 418.192679 
L 803.688259 410.903183 
L 804.143445 413.109563 
L 804.59863 426.2898 
L 805.053815 415.105453 
L 805.509 431.068308 
L 805.964185 427.929045 
L 806.419371 422.05502 
L 806.874556 423.368972 
L 807.329741 424.200511 
L 807.784926 420.927232 
L 808.240111 435.206839 
L 808.695297 424.544962 
L 809.150482 423.297232 
L 809.605667 423.787695 
L 810.060852 423.949947 
L 810.516037 428.56575 
L 810.971222 421.016153 
L 811.426408 427.590221 
L 811.881593 419.213547 
L 812.336778 420.336781 
L 812.791963 420.462883 
L 813.247148 424.354645 
L 813.702334 412.303638 
L 814.612704 429.717901 
L 815.067889 423.853034 
L 815.523074 424.170018 
L 815.97826 435.54266 
L 816.433445 406.681826 
L 816.88863 430.162327 
L 817.343815 431.202003 
L 817.799 425.932201 
L 818.254185 429.873254 
L 818.709371 421.749257 
L 819.164556 421.680982 
L 819.619741 412.414424 
L 820.074926 433.431944 
L 820.530111 424.222978 
L 820.985297 418.930916 
L 821.440482 420.226405 
L 821.895667 428.94186 
L 822.350852 423.967609 
L 822.806037 405.911121 
L 823.261223 425.251427 
L 823.716408 426.146872 
L 824.171593 430.462013 
L 824.626778 420.385791 
L 825.081963 420.763557 
L 825.537148 426.833936 
L 825.992334 423.424233 
L 826.447519 415.11585 
L 826.902704 419.172781 
L 827.357889 424.800683 
L 827.813074 420.249577 
L 828.26826 423.141931 
L 828.723445 431.088938 
L 829.17863 422.37508 
L 829.633815 428.053332 
L 830.089 429.643613 
L 830.544186 408.861098 
L 830.999371 407.606874 
L 831.454556 423.611459 
L 831.909741 417.225809 
L 832.364926 420.463744 
L 832.820111 426.198844 
L 833.275297 424.424254 
L 833.730482 420.442555 
L 834.185667 415.151919 
L 834.640852 422.288518 
L 835.096037 421.744394 
L 836.006408 430.383613 
L 836.461593 426.609078 
L 836.916778 435.385833 
L 837.371963 436.651572 
L 838.282334 420.120442 
L 838.737519 428.875107 
L 839.192704 428.468087 
L 839.647889 431.291937 
L 840.103074 429.64537 
L 840.55826 432.795072 
L 841.013445 429.661436 
L 841.46863 429.646791 
L 841.923815 417.416055 
L 842.379 433.617753 
L 842.834186 425.105445 
L 843.289371 425.163222 
L 843.744556 428.485175 
L 844.199741 428.605867 
L 844.654926 436.083663 
L 845.110112 428.936487 
L 845.565297 428.976525 
L 846.020482 427.139739 
L 846.475667 429.438169 
L 846.930852 418.068032 
L 847.386037 430.074907 
L 847.841223 430.778233 
L 848.296408 410.671791 
L 848.751593 424.79195 
L 849.206778 435.126364 
L 849.661963 426.812343 
L 850.117149 425.313061 
L 850.572334 418.550031 
L 851.027519 421.738715 
L 851.482704 414.763951 
L 851.937889 426.481173 
L 852.393075 435.128856 
L 852.84826 429.525401 
L 853.303445 432.501288 
L 853.75863 431.846446 
L 854.213815 423.898775 
L 854.669 423.894844 
L 855.124186 424.00915 
L 855.579371 418.833818 
L 856.034556 425.696536 
L 856.489741 421.847152 
L 856.944926 423.969027 
L 857.400112 424.06647 
L 857.855297 433.066715 
L 858.310482 425.653982 
L 858.765667 425.779797 
L 859.220852 427.518576 
L 859.676038 427.320706 
L 860.131223 429.03592 
L 860.586408 425.594701 
L 861.041593 430.128095 
L 861.496778 431.758775 
L 861.951963 424.814328 
L 862.407149 425.794022 
L 862.862334 423.12278 
L 863.317519 421.55592 
L 863.772704 424.645373 
L 864.227889 419.605746 
L 864.683075 431.192871 
L 865.13826 421.56313 
L 865.593445 436.180228 
L 866.04863 423.858509 
L 866.503815 425.354737 
L 866.959001 406.64009 
L 867.414186 419.650776 
L 867.869371 420.7075 
L 868.324556 422.218637 
L 868.779741 413.413362 
L 869.234926 426.254413 
L 869.690112 431.786983 
L 870.145297 418.723603 
L 870.600482 410.021874 
L 871.055667 421.909437 
L 871.510852 422.445915 
L 871.966038 425.591122 
L 872.421223 430.020706 
L 872.876408 420.827951 
L 873.331593 430.568829 
L 873.786778 430.741539 
L 874.241964 427.633778 
L 874.697149 430.452981 
L 875.152334 429.684246 
L 875.607519 417.483831 
L 876.062704 435.565757 
L 876.517889 429.322921 
L 876.973075 419.393415 
L 877.42826 429.640356 
L 877.883445 428.244072 
L 878.33863 430.312089 
L 878.793815 425.933677 
L 879.249001 424.478601 
L 879.249001 424.478601 
" clip-path="url(#p704e0f792a)" style="fill: none; stroke: #0000ff; stroke-width: 2; stroke-linecap: square"/>
   </g>
   <g id="patch_3">
    <path d="M 52.883052 457.301635 
L 52.883052 3.00024 
" style="fill: none; stroke: #000000; stroke-width: 0.8; stroke-linejoin: miter; stroke-linecap: square"/>
   </g>
   <g id="patch_4">
    <path d="M 918.59976 457.301635 
L 918.59976 3.00024 
" style="fill: none; stroke: #000000; stroke-width: 0.8; stroke-linejoin: miter; stroke-linecap: square"/>
   </g>
   <g id="patch_5">
    <path d="M 52.883052 457.301635 
L 918.59976 457.301635 
" style="fill: none; stroke: #000000; stroke-width: 0.8; stroke-linejoin: miter; stroke-linecap: square"/>
   </g>
   <g id="patch_6">
    <path d="M 52.883052 3.00024 
L 918.59976 3.00024 
" style="fill: none; stroke: #000000; stroke-width: 0.8; stroke-linejoin: miter; stroke-linecap: square"/>
   </g>
   <g id="legend_1">
    <g id="patch_7">
     <path d="M 898.79976 26.40024 
L 905.99976 26.40024 
Q 909.59976 26.40024 909.59976 22.80024 
L 909.59976 15.60024 
Q 909.59976 12.00024 905.99976 12.00024 
L 898.79976 12.00024 
Q 895.19976 12.00024 895.19976 15.60024 
L 895.19976 22.80024 
Q 895.19976 26.40024 898.79976 26.40024 
z
" style="fill: #ffffff; opacity: 0.8; stroke: #cccccc; stroke-linejoin: miter"/>
    </g>
   </g>
  </g>
 </g>
 <defs>
  <clipPath id="p704e0f792a">
   <rect x="52.883052" y="3.00024" width="865.716707" height="454.301395"/>
  </clipPath>
 </defs>
</svg>
